<svg xmlns="http://www.w3.org/2000/svg" width="20" height="22" viewBox="0 0 20 22" fill="none">
    <path
        d="M2.02 22C1.44417 22 0.96375 21.8141 0.57875 21.4425C0.19375 21.0708 0.000833333 20.6069 0 20.051V4.64015C0 4.08502 0.192916 3.62161 0.57875 3.24992C0.964583 2.87822 1.445 2.69197 2.02 2.69117H4.23125V0H5.5775V2.69117H14.52V0H15.77V2.69117H17.9812C18.5562 2.69117 19.0367 2.87742 19.4225 3.24992C19.8083 3.62242 20.0008 4.08623 20 4.64136V20.051C20 20.6061 19.8075 21.07 19.4225 21.4425C19.0375 21.815 18.5567 22.0008 17.98 22H2.02ZM2.02 20.7932H17.9812C18.1729 20.7932 18.3492 20.716 18.51 20.5615C18.6708 20.407 18.7508 20.2365 18.75 20.0498V9.46857H1.25V20.051C1.25 20.2361 1.33 20.4062 1.49 20.5615C1.65 20.7168 1.82625 20.794 2.01875 20.7932M1.25 8.26056H18.75V4.64015C18.75 4.45511 18.67 4.28495 18.51 4.12968C18.35 3.9744 18.1733 3.89717 17.98 3.89797H2.02C1.8275 3.89797 1.65083 3.97521 1.49 4.12968C1.32917 4.28415 1.24917 4.45471 1.25 4.64136V8.26056ZM10 13.7382C9.74167 13.7382 9.51667 13.6457 9.325 13.4607C9.13333 13.2756 9.0375 13.0584 9.0375 12.809C9.0375 12.5596 9.13333 12.3428 9.325 12.1585C9.51667 11.9743 9.74167 11.8818 10 11.881C10.2583 11.8802 10.4833 11.9727 10.675 12.1585C10.8667 12.3444 10.9625 12.5616 10.9625 12.8102C10.9625 13.0588 10.8667 13.2756 10.675 13.4607C10.4833 13.6457 10.2583 13.7382 10 13.7382ZM5 13.7382C4.74167 13.7382 4.51667 13.6457 4.325 13.4607C4.13333 13.2756 4.0375 13.0584 4.0375 12.809C4.0375 12.5596 4.13333 12.3428 4.325 12.1585C4.51667 11.9743 4.74167 11.8818 5 11.881C5.25833 11.8802 5.48333 11.9727 5.675 12.1585C5.86667 12.3444 5.9625 12.5616 5.9625 12.8102C5.9625 13.0588 5.86667 13.2756 5.675 13.4607C5.48333 13.6457 5.25833 13.7382 5 13.7382ZM15 13.7382C14.7417 13.7382 14.5167 13.6457 14.325 13.4607C14.1333 13.2756 14.0375 13.0584 14.0375 12.809C14.0375 12.5596 14.1333 12.3428 14.325 12.1585C14.5167 11.9743 14.7417 11.8818 15 11.881C15.2583 11.8802 15.4833 11.9727 15.675 12.1585C15.8667 12.3444 15.9625 12.5616 15.9625 12.8102C15.9625 13.0588 15.8667 13.2756 15.675 13.4607C15.4833 13.6457 15.2583 13.7382 15 13.7382ZM10 18.3796C9.74167 18.3796 9.51667 18.2871 9.325 18.102C9.13333 17.917 9.0375 17.6998 9.0375 17.4504C9.0375 17.2009 9.13333 16.9841 9.325 16.7999C9.51667 16.6157 9.74167 16.5231 10 16.5223C10.2583 16.5215 10.4833 16.614 10.675 16.7999C10.8667 16.9857 10.9625 17.203 10.9625 17.4516C10.9625 17.7002 10.8667 17.9174 10.675 18.1032C10.4833 18.2891 10.2583 18.3812 10 18.3796ZM5 18.3796C4.74167 18.3796 4.51667 18.2871 4.325 18.102C4.13333 17.917 4.0375 17.6998 4.0375 17.4504C4.0375 17.2009 4.13333 16.9841 4.325 16.7999C4.51667 16.6157 4.74167 16.5231 5 16.5223C5.25833 16.5215 5.48333 16.614 5.675 16.7999C5.86667 16.9857 5.9625 17.203 5.9625 17.4516C5.9625 17.7002 5.86667 17.9174 5.675 18.1032C5.48333 18.2891 5.25833 18.3812 5 18.3796ZM15 18.3796C14.7417 18.3796 14.5167 18.2871 14.325 18.102C14.1333 17.917 14.0375 17.6998 14.0375 17.4504C14.0375 17.2009 14.1333 16.9841 14.325 16.7999C14.5167 16.6157 14.7417 16.5231 15 16.5223C15.2583 16.5215 15.4833 16.614 15.675 16.7999C15.8667 16.9857 15.9625 17.203 15.9625 17.4516C15.9625 17.7002 15.8667 17.9174 15.675 18.1032C15.4833 18.2891 15.2583 18.3812 15 18.3796Z"
        fill="white" />
</svg>