<svg xmlns="http://www.w3.org/2000/svg" width="22" height="18" viewBox="0 0 22 18" fill="none">
    <path d="M1.97511 18C1.41207 18 0.942333 17.802 0.565889 17.406C0.189445 17.01 0.000814815 16.5154 0 15.9223V2.07771C0 1.48543 0.18863 0.991285 0.565889 0.595285C0.943148 0.199285 1.41248 0.000857143 1.97389 0H20.0261C20.5883 0 21.0577 0.198428 21.4341 0.595285C21.8106 0.992143 21.9992 1.48629 22 2.07771V15.9236C22 16.515 21.8114 17.0091 21.4341 17.406C21.0569 17.8029 20.5875 18.0009 20.0261 18H1.97511ZM11 9.14914L1.22222 2.42357V15.9236C1.22222 16.1541 1.2927 16.3436 1.43367 16.4919C1.57463 16.6401 1.75511 16.7143 1.97511 16.7143H20.0261C20.2453 16.7143 20.4254 16.6401 20.5663 16.4919C20.7073 16.3436 20.7778 16.1537 20.7778 15.9223V2.42229L11 9.14914ZM11 7.71428L20.4013 1.28571H1.59867L11 7.71428ZM1.22222 2.42357V1.28571V15.9236C1.22222 16.1541 1.2927 16.3436 1.43367 16.4919C1.57463 16.6401 1.75511 16.7143 1.97511 16.7143H1.22222V2.42357Z" fill="white"/>
  </svg>