<svg xmlns="http://www.w3.org/2000/svg" width="26" height="26" viewBox="0 0 26 26" fill="none">
    <path d="M2.626 25.8759C1.87742 25.8759 1.25287 25.6268 0.752375 25.1287C0.251875 24.6306 0.00108333 24.0085 0 23.2624V2.61347C0 1.86846 0.250791 1.24689 0.752375 0.748783C1.25396 0.250672 1.8785 0.00107816 2.626 0H23.3756C24.1231 0 24.7477 0.249594 25.2492 0.748783C25.7508 1.24797 26.0011 1.86953 26 2.61347V23.264C26 24.008 25.7497 24.6295 25.2492 25.1287C24.7487 25.6279 24.1237 25.877 23.374 25.8759H2.626ZM2.626 24.2586H23.3756C23.667 24.2586 23.9065 24.1654 24.0939 23.9789C24.2813 23.7923 24.375 23.5541 24.375 23.264V2.61185C24.375 2.32182 24.2813 2.08355 24.0939 1.89703C23.9065 1.7105 23.667 1.61724 23.3756 1.61724H2.62437C2.33296 1.61724 2.09354 1.7105 1.90612 1.89703C1.71871 2.08355 1.625 2.32236 1.625 2.61347V23.264C1.625 23.5541 1.71871 23.7923 1.90612 23.9789C2.09354 24.1654 2.3335 24.2586 2.626 24.2586ZM13 20.6199C15.0854 18.8657 16.6362 17.2355 17.6524 15.7293C18.6685 14.2231 19.1761 12.8269 19.175 11.5406C19.175 9.60642 18.5564 8.07543 17.3192 6.94768C16.0821 5.81992 14.6423 5.25604 13 5.25604C11.3577 5.25604 9.91792 5.81992 8.68075 6.94768C7.44358 8.07543 6.825 9.60642 6.825 11.5406C6.825 12.8269 7.33796 14.2231 8.36387 15.7293C9.38979 17.2355 10.9352 18.8657 13 20.6199ZM13 13.2808C12.5147 13.2808 12.1068 13.1164 11.7764 12.7875C11.446 12.4587 11.2807 12.0528 11.2807 11.5698C11.2807 11.0867 11.446 10.6808 11.7764 10.352C12.1068 10.0231 12.5147 9.85871 13 9.85871C13.4853 9.85871 13.8932 10.0231 14.2236 10.352C14.554 10.6808 14.7192 11.0867 14.7192 11.5698C14.7192 12.0528 14.554 12.4587 14.2236 12.7875C13.8932 13.1164 13.4853 13.2808 13 13.2808Z" fill="white"/>
    </svg>