<svg xmlns="http://www.w3.org/2000/svg" width="21" height="22" viewBox="0 0 21 22" fill="none">
    <path d="M19.6938 10.616C19.5431 8.10044 18.6057 5.96311 16.8815 4.204C15.1573 2.44489 13.0639 1.488 10.6012 1.33333V0C12.0163 0.0684444 13.3399 0.389333 14.5721 0.962667C15.8061 1.536 16.888 2.29733 17.8181 3.24667C18.7481 4.196 19.4944 5.30044 20.0569 6.56C20.6186 7.81867 20.9329 9.17022 21 10.6147L19.6938 10.616ZM14.4689 10.616C14.3183 9.59022 13.8872 8.70978 13.1758 7.97467C12.4643 7.23956 11.6061 6.80356 10.6012 6.66667V5.33333C11.9728 5.47022 13.1401 6.03467 14.1032 7.02667C15.0663 8.01867 15.6236 9.21511 15.7751 10.616H14.4689ZM19.5031 22C17.3008 22 15.0432 21.4373 12.7304 20.312C10.4175 19.1867 8.26485 17.6067 6.27244 15.572C4.2957 13.5382 2.75611 11.3449 1.65367 8.992C0.551222 6.63911 0 4.33956 0 2.09333C0 1.69333 0.130622 1.35556 0.391864 1.08C0.653107 0.804444 0.979661 0.666667 1.37152 0.666667H4.60179C4.95708 0.666667 5.26709 0.780889 5.53182 1.00933C5.79654 1.23778 5.97549 1.53067 6.06867 1.888L6.71655 5.06667C6.77751 5.44 6.76662 5.76578 6.6839 6.044C6.60117 6.32222 6.45618 6.55022 6.24893 6.728L3.38309 9.456C3.91951 10.4489 4.5121 11.3716 5.16085 12.224C5.8096 13.0764 6.5019 13.884 7.23773 14.6467C7.99534 15.42 8.81128 16.14 9.68558 16.8067C10.5599 17.4724 11.5195 18.1009 12.5645 18.692L15.3585 15.7893C15.5709 15.5556 15.81 15.4013 16.0756 15.3267C16.3403 15.2529 16.6338 15.2382 16.956 15.2827L19.7029 15.856C20.0582 15.9449 20.3465 16.1276 20.5676 16.404C20.7888 16.6804 20.8994 16.9969 20.8994 17.3533V20.6C20.8994 21 20.7644 21.3333 20.4945 21.6C20.2245 21.8667 19.8949 22 19.5031 22ZM2.77179 8.20533L5.27972 5.852C5.36244 5.78356 5.41643 5.68933 5.44169 5.56933C5.46781 5.44933 5.46346 5.33822 5.42863 5.236L4.84997 2.40933C4.81601 2.27333 4.75723 2.17111 4.67363 2.10267C4.59004 2.03422 4.48075 2 4.34577 2H1.66542C1.56528 2 1.48168 2.03422 1.41463 2.10267C1.34758 2.17111 1.31405 2.25644 1.31405 2.35867C1.3393 3.26978 1.47907 4.22089 1.73335 5.212C1.98762 6.20311 2.33333 7.20089 2.77048 8.20533M13.808 19.3173C14.691 19.7636 15.6315 20.0938 16.6294 20.308C17.6291 20.5213 18.4999 20.6356 19.2418 20.6507C19.342 20.6507 19.4256 20.6164 19.4926 20.548C19.5597 20.4796 19.5932 20.3947 19.5932 20.2933V17.616C19.5932 17.48 19.5597 17.3689 19.4926 17.2827C19.4256 17.1973 19.3254 17.1378 19.1922 17.104L16.7757 16.5987C16.6747 16.564 16.5863 16.5596 16.5105 16.5853C16.4357 16.612 16.3564 16.6676 16.2728 16.752L13.808 19.3173Z" fill="white"/>
  </svg>